<?xml version="1.0" standalone="no"?>
<!DOCTYPE svg PUBLIC "-//W3C//DTD SVG 20010904//EN"
 "http://www.w3.org/TR/2001/REC-SVG-20010904/DTD/svg10.dtd">
<svg version="1.0" xmlns="http://www.w3.org/2000/svg"
 width="256.000000pt" height="256.000000pt" viewBox="0 0 256.000000 256.000000"
 preserveAspectRatio="xMidYMid meet">

<g transform="translate(0.000000,256.000000) scale(0.100000,-0.100000)"
fill="#000000" stroke="none">
<path d="M1105 2415 c-166 -30 -342 -105 -485 -206 -91 -64 -232 -205 -285
-285 -212 -319 -250 -734 -99 -1079 129 -293 361 -525 636 -634 157 -63 226
-75 423 -76 137 0 197 4 250 17 228 56 432 170 561 314 81 91 174 214 174 232
0 7 14 45 31 85 45 106 78 243 83 349 l5 93 -10 -85 c-28 -254 -116 -443 -293
-627 -57 -60 -105 -102 -115 -101 -8 2 -16 -4 -16 -12 0 -8 -8 -15 -17 -15 -9
0 -20 -4 -25 -9 -4 -5 -3 -6 5 -2 6 4 12 5 12 2 0 -3 -10 -10 -21 -17 -17 -9
-20 -8 -14 3 4 8 2 8 -7 -2 -7 -8 -20 -16 -28 -18 -8 -2 -35 -16 -60 -32 -25
-16 -57 -32 -72 -35 -17 -4 -25 -12 -21 -19 4 -8 2 -8 -7 1 -9 9 -22 8 -54 -3
-86 -31 -205 -54 -301 -58 l-100 -5 115 13 c63 7 151 23 195 35 96 28 225 80
225 91 0 5 -25 -2 -55 -16 -31 -13 -64 -24 -73 -24 -10 0 -22 -4 -27 -9 -6 -6
-57 -20 -115 -31 -143 -30 -347 -23 -470 16 -146 46 -242 93 -336 164 -227
173 -351 357 -416 617 -33 133 -31 350 6 488 63 241 235 487 427 614 131 86
302 151 434 165 110 12 133 17 110 26 -11 4 12 5 50 3 39 -3 93 -5 120 -6 32
0 43 -2 30 -7 -13 -5 2 -9 45 -13 67 -6 153 -27 167 -40 4 -5 -1 -5 -12 -2
-19 6 -19 6 -2 -5 10 -6 25 -9 33 -6 9 3 12 1 9 -4 -6 -10 -5 -11 30 -15 11
-1 49 -17 85 -36 85 -44 84 -44 75 -28 -5 8 -4 11 1 6 5 -5 9 -12 9 -17 0 -8
96 -88 129 -107 11 -7 32 -25 44 -40 98 -117 142 -178 138 -189 -3 -8 -1 -14
4 -14 15 0 40 -54 86 -185 51 -144 58 -136 9 11 -116 349 -391 608 -743 701
-129 34 -391 45 -443 19 -21 -10 -45 -14 -64 -11 -24 5 -27 4 -15 -5 12 -10
11 -11 -7 -7 -13 3 -23 2 -23 -3 0 -9 -67 -25 -93 -22 -10 1 -16 -2 -13 -7 3
-5 -14 -16 -39 -25 -65 -25 -198 -108 -284 -177 l-76 -61 60 57 c59 56 169
135 187 135 5 0 6 4 3 10 -4 6 1 7 11 3 12 -4 15 -3 10 5 -5 8 -1 10 10 5 11
-4 15 -2 11 4 -10 15 117 70 228 98 248 63 509 35 754 -80 120 -57 193 -111
310 -226 93 -92 152 -172 205 -277 15 -30 30 -52 33 -48 6 6 -75 160 -120 226
-41 60 -159 182 -227 235 -86 66 -245 153 -329 181 -42 14 -114 31 -160 39
-101 18 -310 18 -406 0z m-615 -409 c0 -2 -8 -10 -17 -17 -16 -13 -17 -12 -4
4 13 16 21 21 21 13z m-67 -88 c-20 -29 -41 -57 -47 -63 -13 -14 21 42 51 83
39 52 36 37 -4 -20z m1222 -1693 c-16 -8 -37 -14 -45 -14 -8 0 1 7 20 14 46
18 64 17 25 0z m-68 -21 c-3 -3 -12 -4 -19 -1 -8 3 -5 6 6 6 11 1 17 -2 13 -5z
m-44 -11 c-7 -2 -19 -2 -25 0 -7 3 -2 5 12 5 14 0 19 -2 13 -5z m-50 -10 c-7
-2 -19 -2 -25 0 -7 3 -2 5 12 5 14 0 19 -2 13 -5z"/>
<path d="M1365 1914 c-154 -23 -259 -59 -363 -127 -232 -150 -362 -406 -362
-711 0 -206 70 -335 219 -404 75 -35 201 -37 273 -5 60 28 133 95 168 156 l28
49 16 -53 c19 -65 63 -122 119 -152 58 -31 181 -30 250 1 52 23 170 130 193
174 17 33 18 110 2 126 -22 22 -44 12 -108 -54 -77 -77 -105 -94 -160 -94 -49
0 -75 23 -91 82 -19 73 9 295 72 557 16 68 29 131 29 141 0 10 -12 28 -27 40
-23 18 -38 21 -86 18 -34 -3 -64 -11 -73 -20 -9 -9 -33 -90 -54 -186 -70 -314
-130 -470 -216 -562 -109 -116 -254 -97 -314 42 -19 44 -24 71 -24 153 0 311
160 560 409 638 89 27 251 29 373 3 45 -9 91 -15 102 -11 33 10 70 63 70 101
0 42 -22 58 -110 79 -65 15 -278 27 -335 19z"/>
<path d="M2361 1484 c0 -11 3 -14 6 -6 3 7 2 16 -1 19 -3 4 -6 -2 -5 -13z"/>
<path d="M2371 1414 c0 -11 3 -14 6 -6 3 7 2 16 -1 19 -3 4 -6 -2 -5 -13z"/>
</g>
</svg>
